# xmcd
#
# Track frame offsets:
#	150
#	24967
#	45312
#	72845
#	97527
#	119775
#	140047
#	162965
#	176670
#	197970
#	220292
#
# Disc length: 3949 seconds
#
# Revision: 1
# Processed by: cddbd v1.5.2PL0 Copyright (c) Steve Scherf et al.
# Submitted via: EasyCDDAExtractor 2010.4.0.0
#
DISCID=990f6b0b
DTITLE=Various Artist - Ka-Ju-Tah
DYEAR=1900
DGENRE=Blues
TTITLE0=Rich Hopkins and Luminarios - Red, White and Blue
TTITLE1=Rich Hopkins and Luminarios - Shine
TTITLE2=Rich Hopkins and Luminarios - La Reina de Calle 8.000
TTITLE3=Rich Hopkins and Luminarios - My Little Girl
TTITLE4=Rich Hopkins and Luminarios - San Felipe Blues
TTITLE5=Rich Hopkins and Luminarios - Touch U Girl
TTITLE6=Rich Hopkins and Luminarios - Card Board Box (Living in the U.S.A.)
TTITLE7=Rich Hopkins and Luminarios - Lights of Asuncion
TTITLE8=Rich Hopkins and Luminarios with Steve Wynn - Credits Roll
TTITLE9=Rich Hopkins and Luminarios - Crossing Guard
TTITLE10=Rich Hopkins and Luminarios - Ka-Ju-Tah
EXTD=
EXTT0=
EXTT1=
EXTT2=
EXTT3=
EXTT4=
EXTT5=
EXTT6=
EXTT7=
EXTT8=
EXTT9=
EXTT10=
PLAYORDER=
